<svg width="641" height="99" viewBox="0 0 641 99" fill="none" xmlns="http://www.w3.org/2000/svg">
<path d="M96.4558 0.0239081C96.6168 0.010014 96.7795 0.0020051 96.9413 4.35814e-05C98.1059 -0.00567751 99.4308 0.552375 100.239 1.37793C101.999 3.17517 101.57 6.10633 101.566 8.43563L101.57 16.2662C107.469 15.2257 115.237 15.3698 118.657 21.2315C119.39 22.4823 119.826 23.8848 119.93 25.3307C120.068 27.2145 119.959 30.7321 119.958 32.7046L119.956 47.1528L119.958 77.5085L119.962 84.7179C119.962 86.1997 120.074 89.4027 119.72 90.6531C119.298 92.1022 118.309 93.3183 116.977 94.0261C116.073 94.5067 115.049 94.7167 114.029 94.6309C112.517 94.5116 109.452 93.3829 107.768 92.935C104.644 92.1169 101.469 91.5137 98.2629 91.1296C88.6735 89.9535 78.5308 90.712 69.1074 92.7912C64.1243 93.8929 59.2221 95.3322 54.4346 97.0992C53.8037 97.3256 50.8976 98.4665 50.5207 98.3464L50.5021 98.2156C51.7338 96.2516 56.7961 92.3539 58.7939 91.025C71.8265 82.36 92.1143 78.4582 107.434 81.6702C107.47 79.345 107.443 76.9536 107.444 74.6235C104.548 73.9517 100.454 73.8209 97.5085 73.932C82.7227 74.487 68.1078 80.0127 56.6523 89.3283C54.3524 91.1917 52.1796 93.2072 50.1485 95.3608C49.6167 95.9255 47.9115 98.0497 47.3783 98.303C47.1212 98.4248 46.7903 98.3831 46.5465 98.2556C46.3662 98.1616 46.2819 97.9908 46.2419 97.7963C45.9147 96.2042 51.3 88.3925 52.4444 86.9369C61.8865 74.9234 76.5889 67.2498 91.6811 65.428L91.74 31.2519L91.7588 10.0509C81.6014 11.5441 72.0832 15.4075 66.2624 24.2719C64.0369 27.6611 62.8886 31.2296 61.4591 34.988L56.8718 47.0972L44.7212 78.7394C42.4477 84.7122 40.2418 90.8599 37.9069 96.7861L12.1688 38.9853L3.99592 20.6687L1.5307 15.1852C1.07866 14.1881 0.559428 13.1207 0.179384 12.1237C-0.428196 10.6525 0.580433 8.52814 2.10927 8.09342C3.35565 7.73904 5.43077 7.87234 6.76117 7.87471L13.0007 7.88076L18.5551 7.87586C19.5017 7.87324 20.8494 7.83377 21.7802 7.89686C22.3425 7.93168 22.8956 8.05574 23.419 8.26424C25.9984 9.3103 26.6114 11.8536 27.6024 14.2004L30.9706 22.1237L44.0333 52.7771C46.8386 46.4194 49.3681 39.7213 52.153 33.3222C54.9748 26.8383 56.4377 21.5858 61.0578 16.095C68.201 7.6055 78.3633 3.46032 88.9971 1.21847C91.4335 0.704883 93.9892 0.248175 96.4558 0.0239081Z" fill="url(#paint0_linear_3_47)"/>
<path d="M96.4558 0.0239081C96.6168 0.010014 96.7795 0.0020051 96.9413 4.35814e-05C98.1059 -0.00567751 99.4308 0.552375 100.239 1.37793C101.999 3.17517 101.57 6.10633 101.566 8.43563L101.57 16.2662C107.469 15.2257 115.237 15.3698 118.657 21.2315C119.39 22.4823 119.826 23.8848 119.93 25.3307C120.068 27.2145 119.959 30.7321 119.958 32.7046L119.956 47.1528L119.958 77.5085L119.962 84.7179C119.962 86.1997 120.074 89.4027 119.72 90.6531C119.298 92.1022 118.309 93.3183 116.977 94.0261C116.073 94.5067 115.049 94.7167 114.029 94.6309C112.517 94.5116 109.452 93.3829 107.768 92.935C104.644 92.1169 101.469 91.5137 98.2629 91.1296C88.6735 89.9535 78.5308 90.712 69.1074 92.7912C64.1243 93.8929 59.2221 95.3322 54.4346 97.0992C53.8037 97.3256 50.8976 98.4665 50.5207 98.3464L50.5021 98.2156C51.7338 96.2516 56.7961 92.3539 58.7939 91.025C71.8265 82.36 92.1143 78.4582 107.434 81.6702C107.47 79.345 107.443 76.9536 107.444 74.6235C104.548 73.9517 100.454 73.8209 97.5085 73.932C82.7227 74.487 68.1078 80.0127 56.6523 89.3283C54.3524 91.1917 52.1796 93.2072 50.1485 95.3608C49.6167 95.9255 47.9115 98.0497 47.3783 98.303C47.1212 98.4248 46.7903 98.3831 46.5465 98.2556C46.3662 98.1616 46.2819 97.9908 46.2419 97.7963C45.9147 96.2042 51.3 88.3925 52.4444 86.9369C61.8865 74.9234 76.5889 67.2498 91.6811 65.428L91.74 31.2519L91.7588 10.0509C81.6014 11.5441 72.0832 15.4075 66.2624 24.2719C64.0369 27.6611 62.8886 31.2296 61.4591 34.988L56.8718 47.0972L44.7212 78.7394C42.4477 84.7122 40.2418 90.8599 37.9069 96.7861L12.1688 38.9853L3.99592 20.6687L1.5307 15.1852C1.07866 14.1881 0.559428 13.1207 0.179384 12.1237C-0.428196 10.6525 0.580433 8.52814 2.10927 8.09342C3.35565 7.73904 5.43077 7.87234 6.76117 7.87471L13.0007 7.88076L18.5551 7.87586C19.5017 7.87324 20.8494 7.83377 21.7802 7.89686C22.3425 7.93168 22.8956 8.05574 23.419 8.26424C25.9984 9.3103 26.6114 11.8536 27.6024 14.2004L30.9706 22.1237L44.0333 52.7771C46.8386 46.4194 49.3681 39.7213 52.153 33.3222C54.9748 26.8383 56.4377 21.5858 61.0578 16.095C68.201 7.6055 78.3633 3.46032 88.9971 1.21847C91.4335 0.704883 93.9892 0.248175 96.4558 0.0239081Z" fill="url(#paint1_linear_3_47)" style="mix-blend-mode:overlay"/>
<path d="M82.9189 31.1412C84.5282 31.0012 85.5351 32.6599 84.7619 34.0512C84.3083 34.8688 83.7248 35.0372 82.8821 35.3017C81.8107 35.6379 80.7318 35.9732 79.6579 36.3083L70.3946 39.1866C67.8675 39.3425 67.6289 36.2836 69.2006 35.5171C70.2655 34.9977 72.5637 34.3739 73.7881 33.9946C76.808 33.0585 79.8884 32.0087 82.9189 31.1412Z" fill="url(#paint2_linear_3_47)"/>
<path d="M82.9189 31.1412C84.5282 31.0012 85.5351 32.6599 84.7619 34.0512C84.3083 34.8688 83.7248 35.0372 82.8821 35.3017C81.8107 35.6379 80.7318 35.9732 79.6579 36.3083L70.3946 39.1866C67.8675 39.3425 67.6289 36.2836 69.2006 35.5171C70.2655 34.9977 72.5637 34.3739 73.7881 33.9946C76.808 33.0585 79.8884 32.0087 82.9189 31.1412Z" fill="url(#paint3_linear_3_47)" style="mix-blend-mode:overlay"/>
<path d="M82.9418 42.4151C84.5821 42.3944 85.5253 43.8849 84.7415 45.3631C84.5707 45.6509 84.2307 46.0784 83.9005 46.195C80.6787 47.3331 77.3359 48.2406 74.0733 49.2557C72.8375 49.64 71.5993 50.0273 70.3734 50.3401C67.8267 50.4321 67.6558 47.4601 69.2063 46.6757C70.1707 46.1879 72.5596 45.5757 73.6932 45.2288L82.9418 42.4151Z" fill="url(#paint4_linear_3_47)"/>
<path d="M82.9418 42.4151C84.5821 42.3944 85.5253 43.8849 84.7415 45.3631C84.5707 45.6509 84.2307 46.0784 83.9005 46.195C80.6787 47.3331 77.3359 48.2406 74.0733 49.2557C72.8375 49.64 71.5993 50.0273 70.3734 50.3401C67.8267 50.4321 67.6558 47.4601 69.2063 46.6757C70.1707 46.1879 72.5596 45.5757 73.6932 45.2288L82.9418 42.4151Z" fill="url(#paint5_linear_3_47)" style="mix-blend-mode:overlay"/>
<path d="M82.8576 53.614C83.7288 53.587 84.5053 53.8829 84.8248 54.7018C85.665 56.8529 83.7223 57.5354 82.2863 57.9391C78.3077 59.0564 74.4116 60.3861 70.4559 61.46C67.7882 61.6725 67.6403 58.5382 69.2651 57.801C70.5368 57.224 72.8898 56.6176 74.3054 56.1975C77.1488 55.3532 80.0052 54.4076 82.8576 53.614Z" fill="url(#paint6_linear_3_47)"/>
<path d="M82.8576 53.614C83.7288 53.587 84.5053 53.8829 84.8248 54.7018C85.665 56.8529 83.7223 57.5354 82.2863 57.9391C78.3077 59.0564 74.4116 60.3861 70.4559 61.46C67.7882 61.6725 67.6403 58.5382 69.2651 57.801C70.5368 57.224 72.8898 56.6176 74.3054 56.1975C77.1488 55.3532 80.0052 54.4076 82.8576 53.614Z" fill="url(#paint7_linear_3_47)" style="mix-blend-mode:overlay"/>
<path d="M602.901 62.1599C604.405 64.7919 605.971 67.1106 607.601 69.1159C609.293 71.1212 611.173 72.6879 613.241 73.8159C615.309 74.9439 617.659 75.5079 620.291 75.5079C623.8 75.5079 626.62 74.5366 628.751 72.5939C630.881 70.6512 631.947 68.1759 631.947 65.1679C631.947 62.2226 631.257 59.8726 629.879 58.1179C628.5 56.3632 626.683 54.9532 624.427 53.8879C622.233 52.7599 619.883 51.7572 617.377 50.8799C615.747 50.3159 613.93 49.5952 611.925 48.7179C609.919 47.7779 608.008 46.6186 606.191 45.2399C604.373 43.7986 602.869 42.0439 601.679 39.9759C600.551 37.9079 599.987 35.3699 599.987 32.3619C599.987 29.1032 600.801 26.1892 602.431 23.6199C604.06 21.0506 606.316 19.0452 609.199 17.6039C612.081 16.0999 615.371 15.3479 619.069 15.3479C622.641 15.3479 625.743 16.0372 628.375 17.4159C631.069 18.7319 633.357 20.4552 635.237 22.5859C637.117 24.6539 638.589 26.8472 639.655 29.1659L632.793 33.1139C631.978 31.4846 630.944 29.8866 629.691 28.3199C628.437 26.7532 626.902 25.4686 625.085 24.4659C623.33 23.4632 621.168 22.9619 618.599 22.9619C615.027 22.9619 612.426 23.8392 610.797 25.5939C609.167 27.2859 608.353 29.1972 608.353 31.3279C608.353 33.1452 608.823 34.8372 609.763 36.4039C610.703 37.9079 612.269 39.3492 614.463 40.7279C616.719 42.0439 619.758 43.3599 623.581 44.6759C625.335 45.3026 627.184 46.1172 629.127 47.1199C631.069 48.1226 632.855 49.4072 634.485 50.9739C636.177 52.4779 637.555 54.3266 638.621 56.5199C639.686 58.6506 640.219 61.2199 640.219 64.2279C640.219 67.1106 639.655 69.7112 638.527 72.0299C637.461 74.3486 635.957 76.3226 634.015 77.9519C632.135 79.5812 629.973 80.8346 627.529 81.7119C625.147 82.5892 622.641 83.0279 620.009 83.0279C616.437 83.0279 613.115 82.2759 610.045 80.7719C607.037 79.2052 604.373 77.1686 602.055 74.6619C599.799 72.0926 597.95 69.3666 596.509 66.4839L602.901 62.1599Z" fill="#161F1D"/>
<path d="M547.306 16.2879H555.296V82.0879H547.306V16.2879ZM581.146 16.2879H591.016L562.534 47.1199L592.426 82.0879H582.556L552.852 47.3079L581.146 16.2879Z" fill="#161F1D"/>
<path d="M477.743 49.1879C477.743 54.1386 478.808 58.5566 480.939 62.4419C483.132 66.3272 486.109 69.3979 489.869 71.6539C493.629 73.9099 497.89 75.0379 502.653 75.0379C507.478 75.0379 511.739 73.9099 515.437 71.6539C519.197 69.3979 522.142 66.3272 524.273 62.4419C526.466 58.5566 527.563 54.1386 527.563 49.1879C527.563 44.2372 526.466 39.8192 524.273 35.9339C522.142 32.0486 519.197 28.9779 515.437 26.7219C511.739 24.4659 507.478 23.3379 502.653 23.3379C497.89 23.3379 493.629 24.4659 489.869 26.7219C486.109 28.9779 483.132 32.0486 480.939 35.9339C478.808 39.8192 477.743 44.2372 477.743 49.1879ZM469.283 49.1879C469.283 44.3626 470.097 39.9132 471.727 35.8399C473.419 31.7039 475.769 28.1319 478.777 25.1239C481.785 22.0532 485.325 19.6719 489.399 17.9799C493.472 16.2252 497.89 15.3479 502.653 15.3479C507.478 15.3479 511.896 16.2252 515.907 17.9799C519.98 19.6719 523.521 22.0532 526.529 25.1239C529.537 28.1319 531.855 31.7039 533.485 35.8399C535.177 39.9132 536.023 44.3626 536.023 49.1879C536.023 53.9506 535.177 58.3999 533.485 62.5359C531.855 66.6719 529.537 70.2752 526.529 73.3459C523.521 76.3539 519.98 78.7352 515.907 80.4899C511.896 82.1819 507.478 83.0279 502.653 83.0279C497.89 83.0279 493.472 82.1819 489.399 80.4899C485.325 78.7352 481.785 76.3539 478.777 73.3459C475.769 70.2752 473.419 66.6719 471.727 62.5359C470.097 58.3999 469.283 53.9506 469.283 49.1879Z" fill="#161F1D"/>
<path d="M403.479 49.1879C403.479 54.1386 404.544 58.5566 406.675 62.4419C408.868 66.3272 411.845 69.3979 415.605 71.6539C419.365 73.9099 423.626 75.0379 428.389 75.0379C433.214 75.0379 437.476 73.9099 441.173 71.6539C444.933 69.3979 447.878 66.3272 450.009 62.4419C452.202 58.5566 453.299 54.1386 453.299 49.1879C453.299 44.2372 452.202 39.8192 450.009 35.9339C447.878 32.0486 444.933 28.9779 441.173 26.7219C437.476 24.4659 433.214 23.3379 428.389 23.3379C423.626 23.3379 419.365 24.4659 415.605 26.7219C411.845 28.9779 408.868 32.0486 406.675 35.9339C404.544 39.8192 403.479 44.2372 403.479 49.1879ZM395.019 49.1879C395.019 44.3626 395.834 39.9132 397.463 35.8399C399.155 31.7039 401.505 28.1319 404.513 25.1239C407.521 22.0532 411.062 19.6719 415.135 17.9799C419.208 16.2252 423.626 15.3479 428.389 15.3479C433.214 15.3479 437.632 16.2252 441.643 17.9799C445.716 19.6719 449.257 22.0532 452.265 25.1239C455.273 28.1319 457.592 31.7039 459.221 35.8399C460.913 39.9132 461.759 44.3626 461.759 49.1879C461.759 53.9506 460.913 58.3999 459.221 62.5359C457.592 66.6719 455.273 70.2752 452.265 73.3459C449.257 76.3539 445.716 78.7352 441.643 80.4899C437.632 82.1819 433.214 83.0279 428.389 83.0279C423.626 83.0279 419.208 82.1819 415.135 80.4899C411.062 78.7352 407.521 76.3539 404.513 73.3459C401.505 70.2752 399.155 66.6719 397.463 62.5359C395.834 58.3999 395.019 53.9506 395.019 49.1879Z" fill="#161F1D"/>
<path d="M352.661 47.3079V42.8899H363.283C365.476 42.8899 367.45 42.5139 369.205 41.7619C370.96 41.0099 372.338 39.9132 373.341 38.4719C374.344 37.0306 374.845 35.2759 374.845 33.2079C374.845 30.0746 373.748 27.6619 371.555 25.9699C369.362 24.2152 366.604 23.3379 363.283 23.3379H354.353V75.0379H364.223C367.043 75.0379 369.518 74.5366 371.649 73.5339C373.842 72.5312 375.534 71.0899 376.725 69.2099C377.978 67.3299 378.605 65.0426 378.605 62.3479C378.605 60.3426 378.26 58.5566 377.571 56.9899C376.882 55.4232 375.879 54.1072 374.563 53.0419C373.31 51.9766 371.806 51.1932 370.051 50.6919C368.296 50.1279 366.354 49.8459 364.223 49.8459H352.661V45.4279H364.223C367.419 45.4279 370.364 45.7726 373.059 46.4619C375.754 47.1512 378.104 48.2166 380.109 49.6579C382.177 51.0366 383.775 52.8226 384.903 55.0159C386.031 57.2092 386.595 59.8099 386.595 62.8179C386.595 67.1419 385.592 70.7452 383.587 73.6279C381.644 76.4479 378.981 78.5786 375.597 80.0199C372.276 81.3986 368.484 82.0879 364.223 82.0879H346.363V16.2879H363.283C367.231 16.2879 370.646 16.8832 373.529 18.0739C376.474 19.2646 378.762 21.0819 380.391 23.5259C382.02 25.9072 382.835 28.9779 382.835 32.7379C382.835 35.8086 382.02 38.4406 380.391 40.6339C378.762 42.8272 376.474 44.4879 373.529 45.6159C370.646 46.7439 367.231 47.3079 363.283 47.3079H352.661Z" fill="#161F1D"/>
<path d="M315.369 16.2879H339.339L315.651 56.2379V82.0879H294.501V56.4259L270.719 16.2879H294.689L305.029 37.5319L315.369 16.2879Z" fill="#161F1D"/>
<path d="M223.91 73.6279V58.7759H258.69V73.6279H223.91ZM241.112 46.1799L233.028 64.3219L234.626 69.0219L227.482 82.0879H203.982L241.112 11.5879L278.242 82.0879H254.742L247.786 69.6799L249.196 64.3219L241.112 46.1799Z" fill="#161F1D"/>
<path d="M177.13 48.4359L189.82 16.2879H214.26L177.13 86.7879L140 16.2879H164.44L177.13 48.4359Z" fill="#161F1D"/>
<defs>
<linearGradient id="paint0_linear_3_47" x1="0.800874" y1="8.74288" x2="119.33" y2="94.9036" gradientUnits="userSpaceOnUse">
<stop stop-color="#185C4C"/>
<stop offset="1" stop-color="#064335"/>
</linearGradient>
<linearGradient id="paint1_linear_3_47" x1="104.314" y1="-1.86871" x2="52.0568" y2="64.1367" gradientUnits="userSpaceOnUse">
<stop stop-color="white"/>
<stop offset="1" stop-color="white" stop-opacity="0"/>
</linearGradient>
<linearGradient id="paint2_linear_3_47" x1="68.3255" y1="31.8492" x2="78.2969" y2="44.2461" gradientUnits="userSpaceOnUse">
<stop stop-color="#185C4C"/>
<stop offset="1" stop-color="#064335"/>
</linearGradient>
<linearGradient id="paint3_linear_3_47" x1="82.8295" y1="30.9798" x2="79.4759" y2="38.2244" gradientUnits="userSpaceOnUse">
<stop stop-color="white"/>
<stop offset="1" stop-color="white" stop-opacity="0"/>
</linearGradient>
<linearGradient id="paint4_linear_3_47" x1="68.3243" y1="43.1194" x2="78.0968" y2="55.4684" gradientUnits="userSpaceOnUse">
<stop stop-color="#185C4C"/>
<stop offset="1" stop-color="#064335"/>
</linearGradient>
<linearGradient id="paint5_linear_3_47" x1="82.8244" y1="42.2643" x2="79.5606" y2="49.4306" gradientUnits="userSpaceOnUse">
<stop stop-color="white"/>
<stop offset="1" stop-color="white" stop-opacity="0"/>
</linearGradient>
<linearGradient id="paint6_linear_3_47" x1="68.3236" y1="54.3107" x2="77.9898" y2="66.6383" gradientUnits="userSpaceOnUse">
<stop stop-color="#185C4C"/>
<stop offset="1" stop-color="#064335"/>
</linearGradient>
<linearGradient id="paint7_linear_3_47" x1="82.83" y1="53.463" x2="79.6143" y2="60.589" gradientUnits="userSpaceOnUse">
<stop stop-color="white"/>
<stop offset="1" stop-color="white" stop-opacity="0"/>
</linearGradient>
</defs>
</svg>
